<?xml version="1.0" encoding="UTF-8"?>
<svg id="Layer_1" xmlns="http://www.w3.org/2000/svg" version="1.1" viewBox="0 0 520 340">
  <!-- Generator: Adobe Illustrator 29.5.1, SVG Export Plug-In . SVG Version: 2.1.0 Build 141)  -->
  <defs>
    <style>
      .st0 {
        fill: #fff;
      }
    </style>
  </defs>
  <path class="st0" d="M83.45,66.05c-3.55-2.28-7.49-4.11-11.8-5.48-4.32-1.37-8.63-2.51-12.94-3.43-4.32-.91-8.28-1.8-11.88-2.67-3.61-.86-6.5-1.98-8.68-3.35-2.18-1.37-3.27-3.22-3.27-5.56,0-1.83.56-3.45,1.68-4.87,1.12-1.42,2.94-2.56,5.48-3.43,2.54-.86,5.89-1.29,10.05-1.29,4.67,0,9.49.69,14.47,2.06,4.97,1.37,10,3.43,15.08,6.17l9.29-22.39c-5.28-3.05-11.29-5.35-18.05-6.93-6.75-1.57-13.63-2.36-20.63-2.36-10.46,0-19.19,1.58-26.19,4.72-7,3.15-12.26,7.31-15.76,12.49s-5.25,10.96-5.25,17.36c0,5.69,1.12,10.38,3.35,14.09,2.23,3.71,5.12,6.7,8.68,8.99,3.55,2.28,7.49,4.14,11.8,5.56,4.31,1.42,8.63,2.59,12.94,3.5,4.31.91,8.25,1.83,11.8,2.74,3.55.91,6.45,2.08,8.68,3.5,2.23,1.42,3.35,3.35,3.35,5.79,0,1.73-.58,3.22-1.75,4.49-1.17,1.27-3.02,2.28-5.56,3.05-2.54.76-5.89,1.14-10.05,1.14-6.19,0-12.41-.99-18.66-2.97-6.24-1.98-11.75-4.49-16.52-7.54l-9.9,22.23c5.08,3.45,11.65,6.27,19.72,8.45,8.07,2.18,16.47,3.27,25.2,3.27,10.56,0,19.31-1.58,26.27-4.72,6.95-3.15,12.18-7.33,15.69-12.56,3.5-5.23,5.25-10.94,5.25-17.13,0-5.58-1.09-10.23-3.27-13.93-2.18-3.71-5.05-6.7-8.6-8.99Z"/>
  <polygon class="st0" points="132.94 78.46 180.3 78.46 180.3 55.92 132.94 55.92 132.94 37.95 186.7 37.95 186.7 14.65 103.1 14.65 103.1 121.25 188.68 121.25 188.68 97.95 132.94 97.95 132.94 78.46"/>
  <path class="st0" d="M295.43,28.28c-5.28-5.03-11.5-8.91-18.66-11.65-7.16-2.74-15.05-4.11-23.68-4.11s-16.4,1.37-23.6,4.11c-7.21,2.74-13.48,6.62-18.81,11.65s-9.47,10.89-12.41,17.59c-2.95,6.7-4.42,14.06-4.42,22.08s1.47,15.38,4.42,22.08c2.94,6.7,7.08,12.56,12.41,17.59s11.6,8.91,18.81,11.65c7.21,2.74,15.08,4.11,23.6,4.11s16.52-1.37,23.68-4.11c7.16-2.74,13.38-6.6,18.66-11.57,5.28-4.97,9.42-10.84,12.41-17.59,2.99-6.75,4.49-14.14,4.49-22.16s-1.5-15.38-4.49-22.08c-3-6.7-7.13-12.56-12.41-17.59ZM279.67,80.44c-1.47,3.76-3.5,6.98-6.09,9.67-2.59,2.69-5.63,4.75-9.14,6.17-3.5,1.42-7.29,2.13-11.34,2.13s-7.84-.71-11.35-2.13c-3.5-1.42-6.55-3.48-9.14-6.17-2.59-2.69-4.62-5.91-6.09-9.67-1.47-3.75-2.21-7.92-2.21-12.49s.74-8.86,2.21-12.56c1.47-3.71,3.5-6.9,6.09-9.59,2.59-2.69,5.63-4.74,9.14-6.17,3.5-1.42,7.28-2.13,11.35-2.13s7.84.71,11.34,2.13c3.5,1.42,6.55,3.48,9.14,6.17,2.59,2.69,4.62,5.89,6.09,9.59,1.47,3.71,2.21,7.89,2.21,12.56s-.74,8.73-2.21,12.49Z"/>
  <path class="st0" d="M391.67,72.83c0,9.14-1.78,15.69-5.33,19.64-3.56,3.96-8.48,5.94-14.77,5.94s-11.25-1.98-14.85-5.94c-3.6-3.96-5.41-10.51-5.41-19.64V14.65h-30.15v59.09c0,15.84,4.42,28.07,13.25,36.7,8.83,8.63,21.12,12.94,36.85,12.94s28.02-4.31,36.85-12.94c8.83-8.63,13.25-20.86,13.25-36.7V14.65h-29.7v58.17Z"/>
  <polygon class="st0" points="465.84 97.35 465.84 14.65 435.68 14.65 435.68 121.25 516.7 121.25 516.7 97.35 465.84 97.35"/>
</svg>