<?xml version="1.0" encoding="UTF-8"?>
<svg id="Layer_1" xmlns="http://www.w3.org/2000/svg" version="1.1" viewBox="0 0 520 340">
  <!-- Generator: Adobe Illustrator 29.5.1, SVG Export Plug-In . SVG Version: 2.1.0 Build 141)  -->
  <defs>
    <style>
      .st0 {
        fill: #fff;
      }
    </style>
  </defs>
  <path class="st0" d="M204.22,54.37c-22.06-10.77-47.63-16.17-76.7-16.17H3.07v263.18h124.45c29.07,0,54.64-5.39,76.7-16.17,22.05-10.77,39.29-26,51.7-45.68,12.41-19.67,18.61-42.92,18.61-69.74s-6.2-50.38-18.61-69.93c-12.41-19.55-29.64-34.71-51.7-45.49ZM189.93,208.71c-6.27,10.9-14.98,19.17-26.13,24.81-11.16,5.64-24.25,8.46-39.29,8.46h-47V97.61h47c15.04,0,28.13,2.82,39.29,8.46,11.15,5.64,19.86,13.85,26.13,24.63,6.26,10.78,9.4,23.82,9.4,39.1s-3.14,28.01-9.4,38.91Z"/>
  <polygon class="st0" points="372.27 195.74 489.2 195.74 489.2 140.1 372.27 140.1 372.27 95.73 504.99 95.73 504.99 38.21 298.58 38.21 298.58 301.39 509.88 301.39 509.88 243.86 372.27 243.86 372.27 195.74"/>
</svg>