<?xml version="1.0" encoding="UTF-8"?>
<svg id="Layer_1" xmlns="http://www.w3.org/2000/svg" version="1.1" viewBox="0 0 520 340">
  <!-- Generator: Adobe Illustrator 29.5.1, SVG Export Plug-In . SVG Version: 2.1.0 Build 141)  -->
  <defs>
    <style>
      .st0 {
        fill: #fff;
      }
    </style>
  </defs>
  <polygon class="st0" points="74.17 54.59 6.75 54.59 6.75 292.94 187.89 292.94 187.89 239.48 74.17 239.48 74.17 54.59"/>
  <rect class="st0" x="200.83" y="54.59" width="67.42" height="238.34"/>
  <path class="st0" d="M366.98,124.22c5.9-6.01,13.05-10.61,21.45-13.79,8.4-3.18,17.71-4.77,27.92-4.77,11.58,0,22.07,2.21,31.5,6.64,9.42,4.43,18.22,11.07,26.39,19.92l42.9-38.82c-11.58-14.07-26.22-24.86-43.92-32.35-17.71-7.49-37.79-11.24-60.27-11.24-19.3,0-37.06,3.01-53.29,9.02-16.23,6.02-30.25,14.59-42.05,25.71-11.81,11.12-21,24.23-27.58,39.33-6.59,15.1-9.87,31.72-9.87,49.88s3.29,34.79,9.87,49.88c6.58,15.1,15.72,28.21,27.41,39.33,11.69,11.12,25.59,19.7,41.71,25.71,16.11,6.01,33.59,9.02,52.44,9.02,17.25,0,34.84-2.61,52.78-7.83,17.93-5.22,33.71-12.71,47.33-22.47v-98.74h-59.59v65.37c-2.39,1.11-4.77,2.07-7.15,2.89-9.53,3.29-19.3,4.94-29.28,4.94s-19.13-1.64-27.41-4.94c-8.29-3.29-15.38-7.94-21.28-13.96-5.91-6.01-10.5-13.22-13.79-21.62-3.29-8.4-4.94-17.59-4.94-27.58s1.64-19.8,4.94-28.09c3.29-8.28,7.88-15.43,13.79-21.45Z"/>
</svg>